<svg width="40" height="40" viewBox="0 0 40 40" fill="none" xmlns="http://www.w3.org/2000/svg">
<circle cx="20" cy="20" r="20" fill="white" fill-opacity="0.7"/>
<path fill-rule="evenodd" clip-rule="evenodd" d="M15.5556 14.4444C15.5556 13.2657 16.0238 12.1352 16.8573 11.3017C17.6908 10.4683 18.8213 10 20 10C21.1787 10 22.3092 10.4683 23.1427 11.3017C23.9762 12.1352 24.4444 13.2657 24.4444 14.4444C24.4444 15.6232 23.9762 16.7536 23.1427 17.5871C22.3092 18.4206 21.1787 18.8889 20 18.8889C18.8213 18.8889 17.6908 18.4206 16.8573 17.5871C16.0238 16.7536 15.5556 15.6232 15.5556 14.4444ZM15.5556 21.1111C14.0821 21.1111 12.6691 21.6964 11.6272 22.7383C10.5853 23.7802 10 25.1932 10 26.6667C10 27.5507 10.3512 28.3986 10.9763 29.0237C11.6014 29.6488 12.4493 30 13.3333 30H26.6667C27.5507 30 28.3986 29.6488 29.0237 29.0237C29.6488 28.3986 30 27.5507 30 26.6667C30 25.1932 29.4147 23.7802 28.3728 22.7383C27.3309 21.6964 25.9179 21.1111 24.4444 21.1111H15.5556Z" fill="black"/>
</svg>
