<svg width="1156" height="263" viewBox="0 0 1156 263" fill="none" xmlns="http://www.w3.org/2000/svg">
<g filter="url(#filter0_d_349_778)">
<path d="M997.359 91.7734C997.932 97.9382 995.6 104.274 990.535 110.708C985.469 117.145 977.693 123.647 967.459 130.119C946.993 143.063 916.79 155.829 879.064 167.705C803.621 191.454 698.197 211.612 580.677 222.54C463.158 233.469 355.824 233.096 277.295 223.666C238.027 218.95 205.988 211.972 183.486 203.024C172.234 198.55 163.393 193.593 157.226 188.201C151.062 182.81 147.601 177.014 147.028 170.849C146.455 164.684 148.787 158.349 153.852 151.914C158.918 145.477 166.694 138.975 176.928 132.503C197.394 119.559 227.597 106.793 265.322 94.9174C340.766 71.1683 446.19 51.0106 563.71 40.082C681.229 29.1534 788.563 29.526 867.092 38.9566C906.36 43.6725 938.399 50.6502 960.901 59.5981C972.153 64.0724 980.994 69.0291 987.161 74.4215C993.325 79.8118 996.786 85.6085 997.359 91.7734Z" stroke="#B1C78E" shape-rendering="crispEdges"/>
</g>
<g filter="url(#filter1_d_349_778)">
<path d="M250.21 95V44.6H275.986C282.61 44.6 287.554 45.824 290.818 48.272C294.082 50.672 295.714 53.84 295.714 57.776C295.714 60.368 295.018 62.648 293.626 64.616C292.282 66.536 290.362 68.072 287.866 69.224C285.418 70.328 282.49 70.88 279.082 70.88L280.522 67.424C284.074 67.424 287.17 67.976 289.81 69.08C292.45 70.136 294.49 71.696 295.93 73.76C297.418 75.776 298.162 78.248 298.162 81.176C298.162 85.544 296.386 88.952 292.834 91.4C289.33 93.8 284.194 95 277.426 95H250.21ZM264.322 84.704H276.274C278.722 84.704 280.57 84.296 281.818 83.48C283.114 82.616 283.762 81.32 283.762 79.592C283.762 77.864 283.114 76.592 281.818 75.776C280.57 74.912 278.722 74.48 276.274 74.48H263.314V64.616H274.114C276.514 64.616 278.314 64.208 279.514 63.392C280.714 62.576 281.314 61.352 281.314 59.72C281.314 58.088 280.714 56.888 279.514 56.12C278.314 55.304 276.514 54.896 274.114 54.896H264.322V84.704ZM324.626 95.648C320.018 95.648 315.986 94.784 312.53 93.056C309.122 91.28 306.458 88.88 304.538 85.856C302.666 82.784 301.73 79.304 301.73 75.416C301.73 71.528 302.642 68.072 304.466 65.048C306.338 61.976 308.906 59.6 312.17 57.92C315.434 56.192 319.106 55.328 323.186 55.328C327.026 55.328 330.53 56.12 333.698 57.704C336.866 59.24 339.386 61.52 341.258 64.544C343.13 67.568 344.066 71.24 344.066 75.56C344.066 76.04 344.042 76.592 343.994 77.216C343.946 77.84 343.898 78.416 343.85 78.944H312.962V71.744H336.578L331.394 73.76C331.442 71.984 331.106 70.448 330.386 69.152C329.714 67.856 328.754 66.848 327.506 66.128C326.306 65.408 324.89 65.048 323.258 65.048C321.626 65.048 320.186 65.408 318.938 66.128C317.738 66.848 316.802 67.88 316.13 69.224C315.458 70.52 315.122 72.056 315.122 73.832V75.92C315.122 77.84 315.506 79.496 316.274 80.888C317.09 82.28 318.242 83.36 319.73 84.128C321.218 84.848 322.994 85.208 325.058 85.208C326.978 85.208 328.61 84.944 329.954 84.416C331.346 83.84 332.714 82.976 334.058 81.824L341.258 89.312C339.386 91.376 337.082 92.96 334.346 94.064C331.61 95.12 328.37 95.648 324.626 95.648ZM349.653 95V55.976H362.685V67.352L360.741 64.112C361.893 61.184 363.765 59 366.357 57.56C368.949 56.072 372.093 55.328 375.789 55.328V67.64C375.165 67.544 374.613 67.496 374.133 67.496C373.701 67.448 373.221 67.424 372.693 67.424C369.909 67.424 367.653 68.192 365.925 69.728C364.197 71.216 363.333 73.664 363.333 77.072V95H349.653ZM380.715 95V55.976H394.395V95H380.715ZM387.555 51.656C385.059 51.656 383.043 50.96 381.507 49.568C379.971 48.176 379.203 46.448 379.203 44.384C379.203 42.32 379.971 40.592 381.507 39.2C383.043 37.808 385.059 37.112 387.555 37.112C390.051 37.112 392.067 37.784 393.603 39.128C395.139 40.424 395.907 42.104 395.907 44.168C395.907 46.328 395.139 48.128 393.603 49.568C392.115 50.96 390.099 51.656 387.555 51.656ZM427.981 55.328C431.005 55.328 433.741 55.952 436.189 57.2C438.637 58.4 440.557 60.272 441.949 62.816C443.389 65.36 444.109 68.648 444.109 72.68V95H430.429V74.912C430.429 72.128 429.853 70.112 428.701 68.864C427.597 67.568 426.037 66.92 424.021 66.92C422.581 66.92 421.261 67.256 420.061 67.928C418.861 68.552 417.925 69.536 417.253 70.88C416.581 72.224 416.245 73.976 416.245 76.136V95H402.565V55.976H415.597V67.064L413.077 63.824C414.565 60.992 416.605 58.88 419.197 57.488C421.789 56.048 424.717 55.328 427.981 55.328ZM472.054 95.648C467.782 95.648 463.99 94.784 460.678 93.056C457.366 91.328 454.75 88.952 452.83 85.928C450.958 82.856 450.022 79.352 450.022 75.416C450.022 71.48 450.958 68 452.83 64.976C454.75 61.952 457.366 59.6 460.678 57.92C463.99 56.192 467.782 55.328 472.054 55.328C476.326 55.328 480.118 56.192 483.43 57.92C486.79 59.6 489.406 61.952 491.278 64.976C493.15 68 494.086 71.48 494.086 75.416C494.086 79.352 493.15 82.856 491.278 85.928C489.406 88.952 486.79 91.328 483.43 93.056C480.118 94.784 476.326 95.648 472.054 95.648ZM472.054 84.776C473.638 84.776 475.03 84.416 476.23 83.696C477.478 82.976 478.462 81.92 479.182 80.528C479.902 79.088 480.262 77.384 480.262 75.416C480.262 73.448 479.902 71.792 479.182 70.448C478.462 69.056 477.478 68 476.23 67.28C475.03 66.56 473.638 66.2 472.054 66.2C470.518 66.2 469.126 66.56 467.878 67.28C466.678 68 465.694 69.056 464.926 70.448C464.206 71.792 463.846 73.448 463.846 75.416C463.846 77.384 464.206 79.088 464.926 80.528C465.694 81.92 466.678 82.976 467.878 83.696C469.126 84.416 470.518 84.776 472.054 84.776ZM509.52 95L493.464 55.976H507.504L520.32 88.592H513.264L526.728 55.976H539.76L523.632 95H509.52ZM565.073 95V87.728L564.137 85.928V72.536C564.137 70.376 563.465 68.72 562.121 67.568C560.825 66.368 558.737 65.768 555.857 65.768C553.985 65.768 552.089 66.08 550.169 66.704C548.249 67.28 546.617 68.096 545.273 69.152L540.665 59.864C542.873 58.424 545.513 57.32 548.585 56.552C551.705 55.736 554.801 55.328 557.873 55.328C564.209 55.328 569.105 56.792 572.561 59.72C576.065 62.6 577.817 67.136 577.817 73.328V95H565.073ZM553.553 95.648C550.433 95.648 547.793 95.12 545.633 94.064C543.473 93.008 541.817 91.568 540.665 89.744C539.561 87.92 539.009 85.88 539.009 83.624C539.009 81.224 539.609 79.16 540.809 77.432C542.057 75.656 543.953 74.312 546.497 73.4C549.041 72.44 552.329 71.96 556.361 71.96H565.577V79.088H558.233C556.025 79.088 554.465 79.448 553.553 80.168C552.689 80.888 552.257 81.848 552.257 83.048C552.257 84.248 552.713 85.208 553.625 85.928C554.537 86.648 555.785 87.008 557.369 87.008C558.857 87.008 560.201 86.648 561.401 85.928C562.649 85.16 563.561 84.008 564.137 82.472L566.009 87.512C565.289 90.2 563.873 92.24 561.761 93.632C559.697 94.976 556.961 95.648 553.553 95.648ZM599.916 95.648C596.604 95.648 593.364 95.264 590.196 94.496C587.076 93.728 584.556 92.768 582.636 91.616L586.74 82.256C588.564 83.36 590.7 84.248 593.148 84.92C595.596 85.544 597.996 85.856 600.348 85.856C602.652 85.856 604.236 85.616 605.1 85.136C606.012 84.656 606.468 84.008 606.468 83.192C606.468 82.424 606.036 81.872 605.172 81.536C604.356 81.152 603.252 80.864 601.86 80.672C600.516 80.48 599.028 80.264 597.396 80.024C595.764 79.784 594.108 79.472 592.428 79.088C590.796 78.656 589.284 78.032 587.892 77.216C586.548 76.352 585.468 75.2 584.652 73.76C583.836 72.32 583.428 70.496 583.428 68.288C583.428 65.792 584.148 63.584 585.588 61.664C587.076 59.696 589.236 58.16 592.068 57.056C594.9 55.904 598.356 55.328 602.436 55.328C605.172 55.328 607.932 55.616 610.716 56.192C613.548 56.72 615.924 57.536 617.844 58.64L613.74 67.928C611.82 66.824 609.9 66.08 607.98 65.696C606.06 65.264 604.236 65.048 602.508 65.048C600.204 65.048 598.572 65.312 597.612 65.84C596.7 66.368 596.244 67.016 596.244 67.784C596.244 68.552 596.652 69.152 597.468 69.584C598.284 69.968 599.364 70.28 600.708 70.52C602.1 70.712 603.612 70.928 605.244 71.168C606.876 71.36 608.508 71.672 610.14 72.104C611.82 72.536 613.332 73.184 614.676 74.048C616.068 74.864 617.172 75.992 617.988 77.432C618.804 78.824 619.212 80.624 619.212 82.832C619.212 85.232 618.468 87.392 616.98 89.312C615.54 91.232 613.38 92.768 610.5 93.92C607.668 95.072 604.14 95.648 599.916 95.648ZM624.387 95V55.976H638.067V95H624.387ZM631.227 51.656C628.731 51.656 626.715 50.96 625.179 49.568C623.643 48.176 622.875 46.448 622.875 44.384C622.875 42.32 623.643 40.592 625.179 39.2C626.715 37.808 628.731 37.112 631.227 37.112C633.723 37.112 635.739 37.784 637.275 39.128C638.811 40.424 639.579 42.104 639.579 44.168C639.579 46.328 638.811 48.128 637.275 49.568C635.787 50.96 633.771 51.656 631.227 51.656ZM682.886 95.648C679.718 95.648 676.862 95.024 674.318 93.776C671.822 92.528 669.854 90.584 668.414 87.944C667.022 85.256 666.326 81.872 666.326 77.792V55.976H680.006V75.56C680.006 78.584 680.558 80.744 681.662 82.04C682.814 83.336 684.422 83.984 686.486 83.984C687.83 83.984 689.054 83.672 690.158 83.048C691.262 82.424 692.15 81.44 692.822 80.096C693.494 78.704 693.83 76.928 693.83 74.768V55.976H707.51V95H694.478V83.984L696.998 87.08C695.654 89.96 693.71 92.12 691.166 93.56C688.622 94.952 685.862 95.648 682.886 95.648ZM741.018 55.328C744.042 55.328 746.778 55.952 749.226 57.2C751.674 58.4 753.594 60.272 754.986 62.816C756.426 65.36 757.146 68.648 757.146 72.68V95H743.466V74.912C743.466 72.128 742.89 70.112 741.738 68.864C740.634 67.568 739.074 66.92 737.058 66.92C735.618 66.92 734.298 67.256 733.098 67.928C731.898 68.552 730.962 69.536 730.29 70.88C729.618 72.224 729.282 73.976 729.282 76.136V95H715.602V55.976H728.634V67.064L726.114 63.824C727.602 60.992 729.642 58.88 732.234 57.488C734.826 56.048 737.754 55.328 741.018 55.328ZM782.439 95.648C777.447 95.648 773.559 94.424 770.775 91.976C767.991 89.48 766.599 85.736 766.599 80.744V47.264H780.279V80.6C780.279 81.992 780.663 83.096 781.431 83.912C782.199 84.68 783.183 85.064 784.383 85.064C786.015 85.064 787.407 84.656 788.559 83.84L791.943 93.416C790.791 94.184 789.375 94.736 787.695 95.072C786.015 95.456 784.263 95.648 782.439 95.648ZM760.911 67.64V57.416H789.207V67.64H760.911ZM812.914 95.648C809.746 95.648 806.89 95.024 804.346 93.776C801.85 92.528 799.882 90.584 798.442 87.944C797.05 85.256 796.354 81.872 796.354 77.792V55.976H810.034V75.56C810.034 78.584 810.586 80.744 811.69 82.04C812.842 83.336 814.45 83.984 816.514 83.984C817.858 83.984 819.082 83.672 820.186 83.048C821.29 82.424 822.178 81.44 822.85 80.096C823.522 78.704 823.858 76.928 823.858 74.768V55.976H837.538V95H824.506V83.984L827.026 87.08C825.682 89.96 823.738 92.12 821.194 93.56C818.65 94.952 815.89 95.648 812.914 95.648ZM857.005 87.8L857.365 71.456L873.277 55.976H889.477L871.837 74.192L864.853 79.808L857.005 87.8ZM845.629 95V41.576H859.309V95H845.629ZM874.285 95L862.333 80.024L870.829 69.512L890.845 95H874.285ZM125.983 152.112H149.383V162.768H125.983V152.112ZM126.991 171.984H153.343V183H112.879V132.6H152.407V143.616H126.991V171.984ZM171.262 175.8L171.622 159.456L187.534 143.976H203.734L186.094 162.192L179.11 167.808L171.262 175.8ZM159.886 183V129.576H173.566V183H159.886ZM188.542 183L176.59 168.024L185.086 157.512L205.102 183H188.542ZM221.373 183.648C218.061 183.648 214.821 183.264 211.653 182.496C208.533 181.728 206.013 180.768 204.093 179.616L208.197 170.256C210.021 171.36 212.157 172.248 214.605 172.92C217.053 173.544 219.453 173.856 221.805 173.856C224.109 173.856 225.693 173.616 226.557 173.136C227.469 172.656 227.925 172.008 227.925 171.192C227.925 170.424 227.493 169.872 226.629 169.536C225.813 169.152 224.709 168.864 223.317 168.672C221.973 168.48 220.485 168.264 218.853 168.024C217.221 167.784 215.565 167.472 213.885 167.088C212.253 166.656 210.741 166.032 209.349 165.216C208.005 164.352 206.925 163.2 206.109 161.76C205.293 160.32 204.885 158.496 204.885 156.288C204.885 153.792 205.605 151.584 207.045 149.664C208.533 147.696 210.693 146.16 213.525 145.056C216.357 143.904 219.813 143.328 223.893 143.328C226.629 143.328 229.389 143.616 232.173 144.192C235.005 144.72 237.381 145.536 239.301 146.64L235.197 155.928C233.277 154.824 231.357 154.08 229.437 153.696C227.517 153.264 225.693 153.048 223.965 153.048C221.661 153.048 220.029 153.312 219.069 153.84C218.157 154.368 217.701 155.016 217.701 155.784C217.701 156.552 218.109 157.152 218.925 157.584C219.741 157.968 220.821 158.28 222.165 158.52C223.557 158.712 225.069 158.928 226.701 159.168C228.333 159.36 229.965 159.672 231.597 160.104C233.277 160.536 234.789 161.184 236.133 162.048C237.525 162.864 238.629 163.992 239.445 165.432C240.261 166.824 240.669 168.624 240.669 170.832C240.669 173.232 239.925 175.392 238.437 177.312C236.997 179.232 234.837 180.768 231.957 181.92C229.125 183.072 225.597 183.648 221.373 183.648ZM270.396 183.648C267.084 183.648 264.252 182.928 261.9 181.488C259.548 180 257.748 177.792 256.5 174.864C255.3 171.888 254.7 168.096 254.7 163.488C254.7 158.832 255.276 155.04 256.428 152.112C257.58 149.136 259.308 146.928 261.612 145.488C263.964 144.048 266.892 143.328 270.396 143.328C273.948 143.328 277.164 144.168 280.044 145.848C282.972 147.48 285.276 149.808 286.956 152.832C288.684 155.808 289.548 159.36 289.548 163.488C289.548 167.616 288.684 171.192 286.956 174.216C285.276 177.24 282.972 179.568 280.044 181.2C277.164 182.832 273.948 183.648 270.396 183.648ZM245.844 196.968V143.976H258.876V150.6L258.804 163.488L259.524 176.448V196.968H245.844ZM267.516 172.776C269.052 172.776 270.42 172.416 271.62 171.696C272.868 170.976 273.852 169.92 274.572 168.528C275.34 167.136 275.724 165.456 275.724 163.488C275.724 161.52 275.34 159.84 274.572 158.448C273.852 157.056 272.868 156 271.62 155.28C270.42 154.56 269.052 154.2 267.516 154.2C265.98 154.2 264.588 154.56 263.34 155.28C262.14 156 261.156 157.056 260.388 158.448C259.668 159.84 259.308 161.52 259.308 163.488C259.308 165.456 259.668 167.136 260.388 168.528C261.156 169.92 262.14 170.976 263.34 171.696C264.588 172.416 265.98 172.776 267.516 172.776ZM314.771 183.648C310.499 183.648 306.707 182.784 303.395 181.056C300.083 179.328 297.467 176.952 295.547 173.928C293.675 170.856 292.739 167.352 292.739 163.416C292.739 159.48 293.675 156 295.547 152.976C297.467 149.952 300.083 147.6 303.395 145.92C306.707 144.192 310.499 143.328 314.771 143.328C319.043 143.328 322.835 144.192 326.147 145.92C329.507 147.6 332.123 149.952 333.995 152.976C335.867 156 336.803 159.48 336.803 163.416C336.803 167.352 335.867 170.856 333.995 173.928C332.123 176.952 329.507 179.328 326.147 181.056C322.835 182.784 319.043 183.648 314.771 183.648ZM314.771 172.776C316.355 172.776 317.747 172.416 318.947 171.696C320.195 170.976 321.179 169.92 321.899 168.528C322.619 167.088 322.979 165.384 322.979 163.416C322.979 161.448 322.619 159.792 321.899 158.448C321.179 157.056 320.195 156 318.947 155.28C317.747 154.56 316.355 154.2 314.771 154.2C313.235 154.2 311.843 154.56 310.595 155.28C309.395 156 308.411 157.056 307.643 158.448C306.923 159.792 306.563 161.448 306.563 163.416C306.563 165.384 306.923 167.088 307.643 168.528C308.411 169.92 309.395 170.976 310.595 171.696C311.843 172.416 313.235 172.776 314.771 172.776ZM342.42 183V143.976H355.452V155.352L353.508 152.112C354.66 149.184 356.532 147 359.124 145.56C361.716 144.072 364.86 143.328 368.556 143.328V155.64C367.932 155.544 367.38 155.496 366.9 155.496C366.468 155.448 365.988 155.424 365.46 155.424C362.676 155.424 360.42 156.192 358.692 157.728C356.964 159.216 356.1 161.664 356.1 165.072V183H342.42ZM400.551 197.616C398.487 197.616 396.399 197.28 394.287 196.608C392.223 195.984 390.543 195.144 389.247 194.088L393.999 184.512C394.815 185.232 395.751 185.784 396.807 186.168C397.911 186.6 398.991 186.816 400.047 186.816C401.535 186.816 402.711 186.48 403.575 185.808C404.439 185.136 405.183 184.08 405.807 182.64L407.607 178.104L408.687 176.736L421.935 143.976H434.967L418.119 184.584C416.775 187.944 415.215 190.56 413.439 192.432C411.711 194.352 409.767 195.696 407.607 196.464C405.495 197.232 403.143 197.616 400.551 197.616ZM405.879 184.656L388.671 143.976H402.711L415.383 175.512L405.879 184.656ZM460.279 183V175.728L459.343 173.928V160.536C459.343 158.376 458.671 156.72 457.327 155.568C456.031 154.368 453.943 153.768 451.063 153.768C449.191 153.768 447.295 154.08 445.375 154.704C443.455 155.28 441.823 156.096 440.479 157.152L435.871 147.864C438.079 146.424 440.719 145.32 443.791 144.552C446.911 143.736 450.007 143.328 453.079 143.328C459.415 143.328 464.311 144.792 467.767 147.72C471.271 150.6 473.023 155.136 473.023 161.328V183H460.279ZM448.759 183.648C445.639 183.648 442.999 183.12 440.839 182.064C438.679 181.008 437.023 179.568 435.871 177.744C434.767 175.92 434.215 173.88 434.215 171.624C434.215 169.224 434.815 167.16 436.015 165.432C437.263 163.656 439.159 162.312 441.703 161.4C444.247 160.44 447.535 159.96 451.567 159.96H460.783V167.088H453.439C451.231 167.088 449.671 167.448 448.759 168.168C447.895 168.888 447.463 169.848 447.463 171.048C447.463 172.248 447.919 173.208 448.831 173.928C449.743 174.648 450.991 175.008 452.575 175.008C454.063 175.008 455.407 174.648 456.607 173.928C457.855 173.16 458.767 172.008 459.343 170.472L461.215 175.512C460.495 178.2 459.079 180.24 456.967 181.632C454.903 182.976 452.167 183.648 448.759 183.648ZM506.354 143.328C509.378 143.328 512.114 143.952 514.562 145.2C517.01 146.4 518.93 148.272 520.322 150.816C521.762 153.36 522.482 156.648 522.482 160.68V183H508.802V162.912C508.802 160.128 508.226 158.112 507.074 156.864C505.97 155.568 504.41 154.92 502.394 154.92C500.954 154.92 499.634 155.256 498.434 155.928C497.234 156.552 496.298 157.536 495.626 158.88C494.954 160.224 494.618 161.976 494.618 164.136V183H480.938V143.976H493.97V155.064L491.45 151.824C492.938 148.992 494.978 146.88 497.57 145.488C500.162 144.048 503.09 143.328 506.354 143.328ZM549.923 197.616C546.179 197.616 542.603 197.184 539.195 196.32C535.835 195.456 532.955 194.184 530.555 192.504L535.523 182.928C537.155 184.224 539.171 185.232 541.571 185.952C544.019 186.72 546.395 187.104 548.699 187.104C552.395 187.104 555.059 186.288 556.691 184.656C558.323 183.072 559.139 180.744 559.139 177.672V173.064L559.859 162.12L559.787 151.104V143.976H572.819V175.872C572.819 183.264 570.827 188.736 566.843 192.288C562.859 195.84 557.219 197.616 549.923 197.616ZM547.547 180.984C544.091 180.984 540.899 180.216 537.971 178.68C535.091 177.096 532.763 174.912 530.987 172.128C529.259 169.296 528.395 165.96 528.395 162.12C528.395 158.28 529.259 154.968 530.987 152.184C532.763 149.352 535.091 147.168 537.971 145.632C540.899 144.096 544.091 143.328 547.547 143.328C550.859 143.328 553.691 144 556.043 145.344C558.395 146.64 560.171 148.68 561.371 151.464C562.619 154.248 563.243 157.8 563.243 162.12C563.243 166.44 562.619 169.992 561.371 172.776C560.171 175.56 558.395 177.624 556.043 178.968C553.691 180.312 550.859 180.984 547.547 180.984ZM550.787 170.112C552.419 170.112 553.859 169.776 555.107 169.104C556.403 168.432 557.411 167.496 558.131 166.296C558.899 165.096 559.283 163.704 559.283 162.12C559.283 160.536 558.899 159.144 558.131 157.944C557.411 156.744 556.403 155.832 555.107 155.208C553.859 154.536 552.419 154.2 550.787 154.2C549.155 154.2 547.691 154.536 546.395 155.208C545.099 155.832 544.067 156.744 543.299 157.944C542.579 159.144 542.219 160.536 542.219 162.12C542.219 163.704 542.579 165.096 543.299 166.296C544.067 167.496 545.099 168.432 546.395 169.104C547.691 169.776 549.155 170.112 550.787 170.112ZM601.77 183V132.6H627.546C634.17 132.6 639.114 133.824 642.378 136.272C645.642 138.672 647.274 141.84 647.274 145.776C647.274 148.368 646.578 150.648 645.186 152.616C643.842 154.536 641.922 156.072 639.426 157.224C636.978 158.328 634.05 158.88 630.642 158.88L632.082 155.424C635.634 155.424 638.73 155.976 641.37 157.08C644.01 158.136 646.05 159.696 647.49 161.76C648.978 163.776 649.722 166.248 649.722 169.176C649.722 173.544 647.946 176.952 644.394 179.4C640.89 181.8 635.754 183 628.986 183H601.77ZM615.882 172.704H627.834C630.282 172.704 632.13 172.296 633.378 171.48C634.674 170.616 635.322 169.32 635.322 167.592C635.322 165.864 634.674 164.592 633.378 163.776C632.13 162.912 630.282 162.48 627.834 162.48H614.874V152.616H625.674C628.074 152.616 629.874 152.208 631.074 151.392C632.274 150.576 632.874 149.352 632.874 147.72C632.874 146.088 632.274 144.888 631.074 144.12C629.874 143.304 628.074 142.896 625.674 142.896H615.882V172.704ZM676.186 183.648C671.578 183.648 667.546 182.784 664.09 181.056C660.682 179.28 658.018 176.88 656.098 173.856C654.226 170.784 653.29 167.304 653.29 163.416C653.29 159.528 654.202 156.072 656.026 153.048C657.898 149.976 660.466 147.6 663.73 145.92C666.994 144.192 670.666 143.328 674.746 143.328C678.586 143.328 682.09 144.12 685.258 145.704C688.426 147.24 690.946 149.52 692.818 152.544C694.69 155.568 695.626 159.24 695.626 163.56C695.626 164.04 695.602 164.592 695.554 165.216C695.506 165.84 695.458 166.416 695.41 166.944H664.522V159.744H688.138L682.954 161.76C683.002 159.984 682.666 158.448 681.946 157.152C681.274 155.856 680.314 154.848 679.066 154.128C677.866 153.408 676.45 153.048 674.818 153.048C673.186 153.048 671.746 153.408 670.498 154.128C669.298 154.848 668.362 155.88 667.69 157.224C667.018 158.52 666.682 160.056 666.682 161.832V163.92C666.682 165.84 667.066 167.496 667.834 168.888C668.65 170.28 669.802 171.36 671.29 172.128C672.778 172.848 674.554 173.208 676.618 173.208C678.538 173.208 680.17 172.944 681.514 172.416C682.906 171.84 684.274 170.976 685.618 169.824L692.818 177.312C690.946 179.376 688.642 180.96 685.906 182.064C683.17 183.12 679.93 183.648 676.186 183.648ZM701.213 183V143.976H714.245V155.352L712.301 152.112C713.453 149.184 715.325 147 717.917 145.56C720.509 144.072 723.653 143.328 727.349 143.328V155.64C726.725 155.544 726.173 155.496 725.693 155.496C725.261 155.448 724.781 155.424 724.253 155.424C721.469 155.424 719.213 156.192 717.485 157.728C715.757 159.216 714.893 161.664 714.893 165.072V183H701.213ZM743.65 175.8L744.01 159.456L759.922 143.976H776.122L758.482 162.192L751.498 167.808L743.65 175.8ZM732.274 183V129.576H745.954V183H732.274ZM760.93 183L748.978 168.024L757.474 157.512L777.49 183H760.93ZM796.627 183.648C793.459 183.648 790.603 183.024 788.059 181.776C785.563 180.528 783.595 178.584 782.155 175.944C780.763 173.256 780.067 169.872 780.067 165.792V143.976H793.747V163.56C793.747 166.584 794.299 168.744 795.403 170.04C796.555 171.336 798.163 171.984 800.227 171.984C801.571 171.984 802.795 171.672 803.899 171.048C805.003 170.424 805.891 169.44 806.563 168.096C807.235 166.704 807.571 164.928 807.571 162.768V143.976H821.251V183H808.219V171.984L810.739 175.08C809.395 177.96 807.451 180.12 804.907 181.56C802.363 182.952 799.603 183.648 796.627 183.648ZM853.174 183V175.728L852.238 173.928V160.536C852.238 158.376 851.566 156.72 850.222 155.568C848.926 154.368 846.838 153.768 843.958 153.768C842.086 153.768 840.19 154.08 838.27 154.704C836.35 155.28 834.718 156.096 833.374 157.152L828.766 147.864C830.974 146.424 833.614 145.32 836.686 144.552C839.806 143.736 842.902 143.328 845.974 143.328C852.31 143.328 857.206 144.792 860.662 147.72C864.166 150.6 865.918 155.136 865.918 161.328V183H853.174ZM841.654 183.648C838.534 183.648 835.894 183.12 833.734 182.064C831.574 181.008 829.918 179.568 828.766 177.744C827.662 175.92 827.11 173.88 827.11 171.624C827.11 169.224 827.71 167.16 828.91 165.432C830.158 163.656 832.054 162.312 834.598 161.4C837.142 160.44 840.43 159.96 844.462 159.96H853.678V167.088H846.334C844.126 167.088 842.566 167.448 841.654 168.168C840.79 168.888 840.358 169.848 840.358 171.048C840.358 172.248 840.814 173.208 841.726 173.928C842.638 174.648 843.886 175.008 845.47 175.008C846.958 175.008 848.302 174.648 849.502 173.928C850.75 173.16 851.662 172.008 852.238 170.472L854.11 175.512C853.39 178.2 851.974 180.24 849.862 181.632C847.798 182.976 845.062 183.648 841.654 183.648ZM873.833 183V129.576H887.513V183H873.833ZM895.683 183V143.976H909.363V183H895.683ZM902.523 139.656C900.027 139.656 898.011 138.96 896.475 137.568C894.939 136.176 894.171 134.448 894.171 132.384C894.171 130.32 894.939 128.592 896.475 127.2C898.011 125.808 900.027 125.112 902.523 125.112C905.019 125.112 907.035 125.784 908.571 127.128C910.107 128.424 910.875 130.104 910.875 132.168C910.875 134.328 910.107 136.128 908.571 137.568C907.083 138.96 905.067 139.656 902.523 139.656ZM934.958 183.648C929.966 183.648 926.078 182.424 923.294 179.976C920.51 177.48 919.118 173.736 919.118 168.744V135.264H932.798V168.6C932.798 169.992 933.182 171.096 933.95 171.912C934.718 172.68 935.702 173.064 936.902 173.064C938.534 173.064 939.926 172.656 941.078 171.84L944.462 181.416C943.31 182.184 941.894 182.736 940.214 183.072C938.534 183.456 936.782 183.648 934.958 183.648ZM913.43 155.64V145.416H941.726V155.64H913.43ZM972.849 183V175.728L971.913 173.928V160.536C971.913 158.376 971.241 156.72 969.897 155.568C968.601 154.368 966.513 153.768 963.633 153.768C961.761 153.768 959.865 154.08 957.945 154.704C956.025 155.28 954.393 156.096 953.049 157.152L948.441 147.864C950.649 146.424 953.289 145.32 956.361 144.552C959.481 143.736 962.577 143.328 965.649 143.328C971.985 143.328 976.881 144.792 980.337 147.72C983.841 150.6 985.593 155.136 985.593 161.328V183H972.849ZM961.329 183.648C958.209 183.648 955.569 183.12 953.409 182.064C951.249 181.008 949.593 179.568 948.441 177.744C947.337 175.92 946.785 173.88 946.785 171.624C946.785 169.224 947.385 167.16 948.585 165.432C949.833 163.656 951.729 162.312 954.273 161.4C956.817 160.44 960.105 159.96 964.137 159.96H973.353V167.088H966.009C963.801 167.088 962.241 167.448 961.329 168.168C960.465 168.888 960.033 169.848 960.033 171.048C960.033 172.248 960.489 173.208 961.401 173.928C962.313 174.648 963.561 175.008 965.145 175.008C966.633 175.008 967.977 174.648 969.177 173.928C970.425 173.16 971.337 172.008 971.913 170.472L973.785 175.512C973.065 178.2 971.649 180.24 969.537 181.632C967.473 182.976 964.737 183.648 961.329 183.648ZM1007.69 183.648C1004.38 183.648 1001.14 183.264 997.972 182.496C994.852 181.728 992.332 180.768 990.412 179.616L994.516 170.256C996.34 171.36 998.476 172.248 1000.92 172.92C1003.37 173.544 1005.77 173.856 1008.12 173.856C1010.43 173.856 1012.01 173.616 1012.88 173.136C1013.79 172.656 1014.24 172.008 1014.24 171.192C1014.24 170.424 1013.81 169.872 1012.95 169.536C1012.13 169.152 1011.03 168.864 1009.64 168.672C1008.29 168.48 1006.8 168.264 1005.17 168.024C1003.54 167.784 1001.88 167.472 1000.2 167.088C998.572 166.656 997.06 166.032 995.668 165.216C994.324 164.352 993.244 163.2 992.428 161.76C991.612 160.32 991.204 158.496 991.204 156.288C991.204 153.792 991.924 151.584 993.364 149.664C994.852 147.696 997.012 146.16 999.844 145.056C1002.68 143.904 1006.13 143.328 1010.21 143.328C1012.95 143.328 1015.71 143.616 1018.49 144.192C1021.32 144.72 1023.7 145.536 1025.62 146.64L1021.52 155.928C1019.6 154.824 1017.68 154.08 1015.76 153.696C1013.84 153.264 1012.01 153.048 1010.28 153.048C1007.98 153.048 1006.35 153.312 1005.39 153.84C1004.48 154.368 1004.02 155.016 1004.02 155.784C1004.02 156.552 1004.43 157.152 1005.24 157.584C1006.06 157.968 1007.14 158.28 1008.48 158.52C1009.88 158.712 1011.39 158.928 1013.02 159.168C1014.65 159.36 1016.28 159.672 1017.92 160.104C1019.6 160.536 1021.11 161.184 1022.45 162.048C1023.84 162.864 1024.95 163.992 1025.76 165.432C1026.58 166.824 1026.99 168.624 1026.99 170.832C1026.99 173.232 1026.24 175.392 1024.76 177.312C1023.32 179.232 1021.16 180.768 1018.28 181.92C1015.44 183.072 1011.92 183.648 1007.69 183.648ZM1037.92 183.648C1035.62 183.648 1033.67 182.88 1032.09 181.344C1030.51 179.808 1029.71 177.864 1029.71 175.512C1029.71 173.064 1030.51 171.12 1032.09 169.68C1033.67 168.192 1035.62 167.448 1037.92 167.448C1040.23 167.448 1042.17 168.192 1043.75 169.68C1045.34 171.12 1046.13 173.064 1046.13 175.512C1046.13 177.864 1045.34 179.808 1043.75 181.344C1042.17 182.88 1040.23 183.648 1037.92 183.648Z" fill="#ADFF2C"/>
</g>
<defs>
<filter id="filter0_d_349_778" x="136.443" y="22.3821" width="871.5" height="219.858" filterUnits="userSpaceOnUse" color-interpolation-filters="sRGB">
<feFlood flood-opacity="0" result="BackgroundImageFix"/>
<feColorMatrix in="SourceAlpha" type="matrix" values="0 0 0 0 0 0 0 0 0 0 0 0 0 0 0 0 0 0 127 0" result="hardAlpha"/>
<feOffset dy="1"/>
<feGaussianBlur stdDeviation="5"/>
<feComposite in2="hardAlpha" operator="out"/>
<feColorMatrix type="matrix" values="0 0 0 0 1 0 0 0 0 1 0 0 0 0 1 0 0 0 0.4 0"/>
<feBlend mode="normal" in2="BackgroundImageFix" result="effect1_dropShadow_349_778"/>
<feBlend mode="normal" in="SourceGraphic" in2="effect1_dropShadow_349_778" result="shape"/>
</filter>
<filter id="filter1_d_349_778" x="87.8789" y="15.1121" width="983.252" height="210.504" filterUnits="userSpaceOnUse" color-interpolation-filters="sRGB">
<feFlood flood-opacity="0" result="BackgroundImageFix"/>
<feColorMatrix in="SourceAlpha" type="matrix" values="0 0 0 0 0 0 0 0 0 0 0 0 0 0 0 0 0 0 127 0" result="hardAlpha"/>
<feOffset dy="3"/>
<feGaussianBlur stdDeviation="12.5"/>
<feComposite in2="hardAlpha" operator="out"/>
<feColorMatrix type="matrix" values="0 0 0 0 1 0 0 0 0 1 0 0 0 0 1 0 0 0 0.3 0"/>
<feBlend mode="normal" in2="BackgroundImageFix" result="effect1_dropShadow_349_778"/>
<feBlend mode="normal" in="SourceGraphic" in2="effect1_dropShadow_349_778" result="shape"/>
</filter>
</defs>
</svg>
