<svg width="34" height="34" viewBox="0 0 34 34" fill="none" xmlns="http://www.w3.org/2000/svg">
<path d="M6.99998 20.3333H20.3333V17H6.99998V20.3333ZM6.99998 15.3333H27V12H6.99998V15.3333ZM6.99998 10.3333H27V6.99999H6.99998V10.3333ZM0.333313 33.6667V3.66666C0.333313 2.74999 0.65998 1.96555 1.31331 1.31333C1.96665 0.661106 2.75109 0.334439 3.66665 0.333328H30.3333C31.25 0.333328 32.035 0.659995 32.6883 1.31333C33.3416 1.96666 33.6678 2.75111 33.6666 3.66666V23.6667C33.6666 24.5833 33.3405 25.3683 32.6883 26.0217C32.0361 26.675 31.2511 27.0011 30.3333 27H6.99998L0.333313 33.6667ZM5.58331 23.6667H30.3333V3.66666H3.66665V25.5417L5.58331 23.6667Z" fill="#1D2F1A"/>
</svg>
